<?xml version="1.0" encoding="UTF-8" standalone="no"?>
<!DOCTYPE svg PUBLIC "-//W3C//DTD SVG 1.1//EN" "http://www.w3.org/Graphics/SVG/1.1/DTD/svg11.dtd">
<svg width="100%" height="100%" viewBox="0 0 31 40" version="1.1" xmlns="http://www.w3.org/2000/svg" xmlns:xlink="http://www.w3.org/1999/xlink" xml:space="preserve" xmlns:serif="http://www.serif.com/" style="fill-rule:evenodd;clip-rule:evenodd;stroke-linejoin:round;stroke-miterlimit:2;">
    <g transform="matrix(1,0,0,1,-1257.24,-2029.19)">
        <g transform="matrix(1,0,0,1,0,1272.87)">
            <g transform="matrix(0.0443973,0,0,0.0444876,1257.19,756.264)">
                <path d="M254.568,135.756L343.638,84.332L432.755,135.783L510.343,1.399L675.293,1.399L556.468,207.208L655.458,264.36L655.458,624.418L568.442,674.657L687.269,880.47L522.32,880.47L444.73,746.082L343.638,804.448L243.379,746.563L166.084,880.444L1.135,880.444L119.667,675.137L31.819,624.418L31.819,264.36L130.856,207.181L12.049,1.399L176.997,1.399L254.568,135.756ZM95.95,301.386L95.95,587.392L343.638,730.396L591.326,587.392L591.326,301.386L343.638,158.384L95.95,301.386Z"/>
            </g>
        </g>
    </g>
</svg>
